<svg width="48" height="48" viewBox="0 0 48 48" fill="none" xmlns="http://www.w3.org/2000/svg">
<path d="M25.9397 35.22L21.7197 31" stroke="white" stroke-width="2.5" stroke-miterlimit="10" stroke-linecap="round" stroke-linejoin="round"/>
<path d="M25.9002 31.04L21.6602 35.28" stroke="white" stroke-width="2.5" stroke-miterlimit="10" stroke-linecap="round" stroke-linejoin="round"/>
<path d="M11.0796 22.24C1.71957 22.9 1.71957 36.52 11.0796 37.18H14.9196" stroke="white" stroke-width="2.5" stroke-miterlimit="10" stroke-linecap="round" stroke-linejoin="round"/>
<path d="M11.1801 22.24C4.76006 4.38004 31.8401 -2.75995 34.9401 16C43.6001 17.1 47.1001 28.6401 40.5401 34.3801C38.5401 36.2001 35.9601 37.2 33.2601 37.18H33.0801" stroke="white" stroke-width="2.5" stroke-miterlimit="10" stroke-linecap="round" stroke-linejoin="round"/>
<path d="M34 33.0601C34 34.5401 33.68 35.9401 33.08 37.1801C32.92 37.5401 32.74 37.8801 32.54 38.2001C30.82 41.1001 27.64 43.0601 24 43.0601C20.36 43.0601 17.18 41.1001 15.46 38.2001C15.26 37.8801 15.08 37.5401 14.92 37.1801C14.32 35.9401 14 34.5401 14 33.0601C14 27.5401 18.48 23.0601 24 23.0601C29.52 23.0601 34 27.5401 34 33.0601Z" stroke="white" stroke-width="2.5" stroke-miterlimit="10" stroke-linecap="round" stroke-linejoin="round"/>
</svg>
