<svg width="48" height="48" viewBox="0 0 48 48" fill="none" xmlns="http://www.w3.org/2000/svg">
<path d="M29.8 4H18.2C16.84 4 14.92 4.80001 13.96 5.76001L5.76001 13.96C4.80001 14.92 4 16.84 4 18.2V29.8C4 31.16 4.80001 33.08 5.76001 34.04L13.96 42.24C14.92 43.2 16.84 44 18.2 44H29.8C31.16 44 33.08 43.2 34.04 42.24L42.24 34.04C43.2 33.08 44 31.16 44 29.8V18.2C44 16.84 43.2 14.92 42.24 13.96L34.04 5.76001C33.08 4.80001 31.16 4 29.8 4Z" stroke="white" stroke-width="2.5" stroke-linecap="round" stroke-linejoin="round"/>
<path d="M9.87988 38.1599L38.1599 9.87988" stroke="white" stroke-width="2.5" stroke-linecap="round" stroke-linejoin="round"/>
</svg>
